<svg xmlns="http://www.w3.org/2000/svg" viewBox="0 0 24 24">
    <defs>
        <filter id="n4n75crnna">
            <feColorMatrix in="SourceGraphic" values="0 0 0 0 0.952941 0 0 0 0 0.572549 0 0 0 0 0.000000 0 0 0 1.000000 0"/>
        </filter>
    </defs>
    <g fill="none" fill-rule="evenodd" filter="url(#n4n75crnna)">
        <path fill="#FFF" fill-rule="nonzero" d="M12.914 18.75v-.001c.249-.008.496-.07.72-.18 1.611-.798 4.128-1.006 5.134-1.058 1.133-.058 2.02-.976 2.02-2.09V6.843c0-1.154-.957-2.093-2.134-2.093-.341 0-4.25.177-6.615 1.556C9.673 4.927 5.765 4.75 5.424 4.75c-1.177 0-2.135.939-2.135 2.093v8.578c0 1.114.888 2.032 2.021 2.09 1.006.052 3.522.26 5.133 1.058.224.11.472.172.72.18v.001h1.751zM10.8 17.14c-1.764-.671-4.21-.877-5.422-.94-.435-.022-.776-.364-.776-.779V6.843c0-.43.37-.78.822-.78.545.002 3.46.213 5.429 1.107.318.144.527.455.527.805l.004 2.9v5.856c0 .303-.3.517-.584.409zm1.896-.41v-5.855l.004-2.9c0-.35.21-.661.527-.806 1.968-.893 4.884-1.104 5.428-1.106.453 0 .822.35.822.78v8.578c0 .415-.34.757-.775.779-1.213.063-3.658.269-5.423.94-.283.108-.583-.106-.583-.41z"/>
    </g>
</svg>
