<svg xmlns="http://www.w3.org/2000/svg" viewBox="0 0 12 12">
    <path d="M8.475 11.958c.961-.046 1.812-.265 2.514-.97.701-.701.92-1.553.969-2.514.056-.99.056-3.957 0-4.948-.046-.961-.265-1.813-.97-2.515-.7-.701-1.552-.92-2.513-.969-.99-.056-3.96-.056-4.95 0-.958.046-1.81.265-2.514.967-.704.701-.92 1.553-.969 2.514-.056.99-.056 3.96 0 4.951.046.961.265 1.813.97 2.515.703.701 1.552.92 2.513.969.99.056 3.96.056 4.95 0zm-2.474-1.04c-.872 0-2.749.07-3.536-.24-.525-.209-.929-.613-1.14-1.14-.314-.79-.241-2.665-.241-3.538 0-.873-.07-2.75.24-3.537.21-.525.614-.93 1.14-1.14.79-.314 2.665-.242 3.537-.242.873 0 2.75-.07 3.537.241.524.209.929.613 1.14 1.14.313.79.241 2.665.241 3.538 0 .873.072 2.75-.24 3.537-.21.525-.614.93-1.141 1.14-.79.314-2.664.242-3.537.242zm3.202-7.403c.396 0 .718-.319.718-.718 0-.396-.322-.717-.718-.717-.396 0-.717.321-.717.717 0 .397.318.718.717.718zM6.001 9.077c1.703 0 3.076-1.374 3.076-3.077 0-1.703-1.373-3.077-3.076-3.077C4.3 2.923 2.925 4.297 2.925 6c0 1.703 1.374 3.077 3.076 3.077zm0-1.077c-1.1 0-2-.897-2-2s.897-2 2-2 2 .897 2 2-.9 2-2 2z"/>
</svg>
