<svg xmlns="http://www.w3.org/2000/svg" width="48" height="48" viewBox="0 0 48 48">
    <path fill="#FFF" d="M46.992 0C47.55 0 48 .451 48 1.008v45.984C48 47.55 47.549 48 46.992 48H1.008C.45 48 0 47.549 0 46.992V1.008C0 .45.451 0 1.008 0zm-13.69 15.44c-.435 0-.89.105-1.362.314-.472.209-.895.497-1.267.863-.378.373-.716.825-1.014 1.358-.249.444-.441.934-.578 1.47l-.076.326-.12.585h-1.658l-.18.782h1.675l-1.581 7.425c-.23 1.042-.5 1.845-.812 2.406-.313.561-.69.86-1.13.894-.075-.12-.162-.264-.263-.43-.1-.166-.19-.298-.27-.395-.103-.12-.222-.22-.357-.301-.135-.08-.29-.12-.468-.12-.281 0-.496.094-.645.283-.149.19-.223.407-.223.653 0 .293.119.535.356.727.238.191.609.287 1.113.287.917 0 1.808-.403 2.673-1.211.798-.746 1.343-1.69 1.634-2.83l.067-.29 1.513-7.098h2.14l.18-.782h-2.157l.19-.911c.246-1.175.52-2.014.824-2.518.304-.504.653-.765 1.049-.782.103.154.189.295.258.42.068.127.16.261.275.405.103.126.22.227.352.305.132.077.286.116.464.116.298 0 .517-.095.657-.284.14-.189.21-.407.21-.653 0-.292-.118-.534-.356-.726-.237-.192-.608-.288-1.113-.288zM12.77 20.08c-.74 0-1.411.163-2.016.486-.604.324-1.104.74-1.5 1.25-.395.51-.703 1.093-.923 1.75C8.11 24.22 8 24.907 8 25.623c0 1.077.29 1.907.872 2.492.582.584 1.374.876 2.376.876.745 0 1.457-.227 2.136-.683.594-.398 1.08-.862 1.456-1.39l.155-.23-.49-.36c-.395.544-.809.965-1.241 1.263-.433.298-.927.447-1.483.447-.618 0-1.11-.24-1.474-.718-.363-.478-.545-1.124-.545-1.938 0-1.318.282-2.43.846-3.339.565-.908 1.236-1.362 2.015-1.362.235 0 .462.036.68.108.217.071.357.184.42.34-.074.194-.174.45-.3.768s-.19.569-.19.752c0 .19.078.361.233.516.154.155.386.232.696.232.372 0 .651-.15.838-.447.186-.298.279-.645.279-1.04 0-.527-.213-.964-.64-1.31-.427-.347-1.05-.52-1.87-.52zm8.466 0c-.642 0-1.267.157-1.874.469-.607.312-1.131.723-1.573 1.233-.464.533-.827 1.135-1.09 1.805-.264.67-.396 1.36-.396 2.071 0 1.031.236 1.845.709 2.44.472.596 1.124.894 1.955.894.31 0 .596-.053.86-.159.263-.106.506-.23.73-.373.235-.144.44-.294.614-.452.131-.118.249-.22.352-.308l.1-.083h.06c.022.373.154.68.395.92.24.24.567.36.98.36.36 0 .667-.045.919-.137.216-.078.529-.199.939-.362l.213-.084.128-.55c-.108.04-.263.077-.464.111-.2.035-.355.052-.464.052-.326 0-.558-.058-.696-.172-.137-.115-.206-.335-.206-.662 0-.12.024-.308.073-.563.037-.19.072-.36.107-.508l.035-.14 1.306-5.544-.103-.128-1.573.403c-.212-.137-.502-.26-.872-.369-.37-.109-.758-.163-1.164-.163zm16.442 0c-.745 0-1.425.164-2.041.49-.616.327-1.136.757-1.56 1.29-.435.544-.766 1.144-.993 1.8-.226.656-.34 1.345-.34 2.067 0 1.042.269 1.847.804 2.415.536.567 1.311.85 2.325.85.74 0 1.452-.209 2.14-.627.601-.366 1.115-.84 1.541-1.42l.178-.256-.49-.36c-.424.567-.855.993-1.294 1.28-.438.286-.943.43-1.516.43-.648 0-1.139-.24-1.474-.718-.335-.478-.503-1.17-.503-2.075.659-.08 1.26-.18 1.805-.301.544-.12 1.083-.278 1.615-.473.728-.258 1.282-.604 1.663-1.04.381-.435.572-.957.572-1.564 0-.521-.2-.95-.597-1.285-.399-.335-1.01-.502-1.835-.502zm-16.305.61c.304 0 .556.044.756.13.2.086.358.2.473.343.126.15.21.31.25.482.026.114.044.233.053.355l.006.186-1.091 4.624c-.441.452-.838.769-1.19.95-.353.18-.69.27-1.01.27-.315 0-.576-.06-.782-.18-.206-.12-.364-.29-.473-.508-.114-.223-.192-.47-.232-.739-.04-.269-.06-.578-.06-.928 0-.636.095-1.263.284-1.882.189-.619.432-1.146.73-1.581.315-.464.67-.834 1.066-1.109.395-.275.802-.412 1.22-.412zm16.141-.008c.12 0 .238.009.353.026.114.017.223.06.326.129.098.063.178.159.241.288.063.129.095.305.095.528 0 .533-.116.993-.349 1.38-.232.386-.585.703-1.06.95-.333.171-.751.31-1.256.416-.504.106-.956.188-1.357.245.154-1.129.522-2.071 1.104-2.827.581-.757 1.216-1.135 1.903-1.135z"/>
</svg>
